STARTFONT 2.1
COMMENT  
COMMENT  2002 - Iconian Fonts: www.iconian.com
COMMENT  
COMMENT  WARNING:  This bdf file was generated from a font server using
COMMENT  fstobdf.  The resulting font is subject to the same copyright,
COMMENT  license, and trademark restrictions as the original font.  The
COMMENT  authors and distributors of fstobdf disclaim all liability for
COMMENT  misuse of the program or its output.
COMMENT  
FONT -bitstream-radio space-medium-r-normal--14-135-75-75-p-80-iso8859-1
SIZE 14 75 75
FONTBOUNDINGBOX 17 17 -2 -4
STARTPROPERTIES 37
FONT "-bitstream-radio space-medium-r-normal--14-135-75-75-p-80-iso8859-1"
FOUNDRY "bitstream"
FAMILY_NAME "radio space"
WEIGHT_NAME "medium"
SLANT "r"
SETWIDTH_NAME "normal"
ADD_STYLE_NAME ""
PIXEL_SIZE 14
POINT_SIZE 135
RESOLUTION_X 75
RESOLUTION_Y 75
SPACING "p"
AVERAGE_WIDTH 80
CHARSET_REGISTRY "iso8859"
CHARSET_ENCODING "1"
RAW_PIXEL_SIZE 1000
RAW_POINT_SIZE 964
RAW_AVERAGE_WIDTH 13042
FONT_ASCENT 13
RAW_ASCENT 903
FONT_DESCENT 4
RAW_DESCENT 270
COPYRIGHT "2002 - Iconian Fonts: www.iconian.com"
FACE_NAME "Radio Space"
_ADOBE_POSTSCRIPT_FONTNAME "RadioSpace"
SUBSCRIPT_SIZE 8
SUBSCRIPT_X 0
SUBSCRIPT_Y -2
SUPERSCRIPT_SIZE 8
SUPERSCRIPT_X 0
SUPERSCRIPT_Y 3
UNDERLINE_THICKNESS 1
UNDERLINE_POSITION 1
ITALIC_ANGLE 5760
FONT_TYPE "TrueType"
RASTERIZER_NAME "FreeType"
DEFAULT_CHAR 0
ENDPROPERTIES
CHARS 191
STARTCHAR space
ENCODING 32
SWIDTH 342 0
DWIDTH 5 0
BBX 0 0 0 0
ATTRIBUTES 1388
BITMAP
ENDCHAR
STARTCHAR exclam
ENCODING 33
SWIDTH 205 0
DWIDTH 3 0
BBX 1 9 1 0
ATTRIBUTES 0bb8
BITMAP
80
80
80
80
80
00
00
00
80
ENDCHAR
STARTCHAR quotedbl
ENCODING 34
SWIDTH 342 0
DWIDTH 5 0
BBX 3 3 1 6
ATTRIBUTES 1388
BITMAP
a0
a0
00
ENDCHAR
STARTCHAR numbersign
ENCODING 35
SWIDTH 685 0
DWIDTH 10 0
BBX 8 9 1 0
ATTRIBUTES 2710
BITMAP
24
24
24
ff
04
ff
24
24
24
ENDCHAR
STARTCHAR dollar
ENCODING 36
SWIDTH 617 0
DWIDTH 9 0
BBX 7 9 1 0
ATTRIBUTES 2328
BITMAP
fe
90
90
90
fe
16
12
16
fe
ENDCHAR
STARTCHAR percent
ENCODING 37
SWIDTH 960 0
DWIDTH 14 0
BBX 11 9 2 0
ATTRIBUTES 36b0
BITMAP
f180
9100
9200
9600
f7e0
0a20
1220
1220
23e0
ENDCHAR
STARTCHAR ampersand
ENCODING 38
SWIDTH 617 0
DWIDTH 9 0
BBX 7 9 1 0
ATTRIBUTES 2328
BITMAP
10
10
10
10
fe
12
12
12
1e
ENDCHAR
STARTCHAR apostrophe
ENCODING 39
SWIDTH 205 0
DWIDTH 3 0
BBX 1 3 1 6
ATTRIBUTES 0bb8
BITMAP
80
80
00
ENDCHAR
STARTCHAR parenleft
ENCODING 40
SWIDTH 342 0
DWIDTH 5 0
BBX 4 9 1 0
ATTRIBUTES 1388
BITMAP
f0
80
80
80
80
80
80
80
f0
ENDCHAR
STARTCHAR parenright
ENCODING 41
SWIDTH 411 0
DWIDTH 6 0
BBX 4 9 1 0
ATTRIBUTES 1770
BITMAP
f0
30
10
10
10
10
10
30
f0
ENDCHAR
STARTCHAR asterisk
ENCODING 42
SWIDTH 480 0
DWIDTH 7 0
BBX 5 5 1 4
ATTRIBUTES 1b58
BITMAP
20
a8
f8
30
50
ENDCHAR
STARTCHAR plus
ENCODING 43
SWIDTH 480 0
DWIDTH 7 0
BBX 5 5 1 2
ATTRIBUTES 1b58
BITMAP
20
20
f8
20
20
ENDCHAR
STARTCHAR comma
ENCODING 44
SWIDTH 205 0
DWIDTH 3 0
BBX 1 3 1 -2
ATTRIBUTES 0bb8
BITMAP
80
80
00
ENDCHAR
STARTCHAR minus
ENCODING 45
SWIDTH 480 0
DWIDTH 7 0
BBX 5 1 1 4
ATTRIBUTES 1b58
BITMAP
f8
ENDCHAR
STARTCHAR period
ENCODING 46
SWIDTH 205 0
DWIDTH 3 0
BBX 1 1 1 0
ATTRIBUTES 0bb8
BITMAP
80
ENDCHAR
STARTCHAR slash
ENCODING 47
SWIDTH 617 0
DWIDTH 9 0
BBX 8 9 1 0
ATTRIBUTES 2328
BITMAP
02
06
04
08
18
10
20
60
c0
ENDCHAR
STARTCHAR 0
ENCODING 48
SWIDTH 617 0
DWIDTH 9 0
BBX 7 9 1 0
ATTRIBUTES 2328
BITMAP
fe
86
82
82
82
82
82
86
fe
ENDCHAR
STARTCHAR 1
ENCODING 49
SWIDTH 205 0
DWIDTH 3 0
BBX 1 9 1 0
ATTRIBUTES 0bb8
BITMAP
80
80
80
80
80
80
80
80
80
ENDCHAR
STARTCHAR 2
ENCODING 50
SWIDTH 617 0
DWIDTH 9 0
BBX 7 9 1 0
ATTRIBUTES 2328
BITMAP
fe
06
02
02
fe
80
80
80
fe
ENDCHAR
STARTCHAR 3
ENCODING 51
SWIDTH 685 0
DWIDTH 10 0
BBX 7 9 2 0
ATTRIBUTES 2710
BITMAP
fe
06
02
02
fe
02
02
06
fe
ENDCHAR
STARTCHAR 4
ENCODING 52
SWIDTH 617 0
DWIDTH 9 0
BBX 7 9 1 0
ATTRIBUTES 2328
BITMAP
82
82
82
82
fe
02
02
02
02
ENDCHAR
STARTCHAR 5
ENCODING 53
SWIDTH 617 0
DWIDTH 9 0
BBX 7 9 1 0
ATTRIBUTES 2328
BITMAP
fe
80
80
80
fe
06
02
06
fe
ENDCHAR
STARTCHAR 6
ENCODING 54
SWIDTH 617 0
DWIDTH 9 0
BBX 7 9 1 0
ATTRIBUTES 2328
BITMAP
fe
c0
80
80
fe
86
82
86
fe
ENDCHAR
STARTCHAR 7
ENCODING 55
SWIDTH 685 0
DWIDTH 10 0
BBX 7 9 2 0
ATTRIBUTES 2710
BITMAP
fe
06
02
02
02
02
02
02
02
ENDCHAR
STARTCHAR 8
ENCODING 56
SWIDTH 617 0
DWIDTH 9 0
BBX 7 9 1 0
ATTRIBUTES 2328
BITMAP
fe
c6
82
82
fe
82
82
86
fe
ENDCHAR
STARTCHAR 9
ENCODING 57
SWIDTH 617 0
DWIDTH 9 0
BBX 7 9 1 0
ATTRIBUTES 2328
BITMAP
fe
86
82
82
fe
02
02
06
fe
ENDCHAR
STARTCHAR colon
ENCODING 58
SWIDTH 205 0
DWIDTH 3 0
BBX 1 4 1 0
ATTRIBUTES 0bb8
BITMAP
80
00
00
80
ENDCHAR
STARTCHAR semicolon
ENCODING 59
SWIDTH 205 0
DWIDTH 3 0
BBX 1 6 1 -2
ATTRIBUTES 0bb8
BITMAP
80
00
00
80
80
00
ENDCHAR
STARTCHAR less
ENCODING 60
SWIDTH 342 0
DWIDTH 5 0
BBX 4 9 1 0
ATTRIBUTES 1388
BITMAP
f0
80
80
80
80
80
80
80
f0
ENDCHAR
STARTCHAR equal
ENCODING 61
SWIDTH 480 0
DWIDTH 7 0
BBX 5 4 1 3
ATTRIBUTES 1b58
BITMAP
f8
00
00
f8
ENDCHAR
STARTCHAR greater
ENCODING 62
SWIDTH 411 0
DWIDTH 6 0
BBX 4 9 1 0
ATTRIBUTES 1770
BITMAP
f0
30
10
10
10
10
10
30
f0
ENDCHAR
STARTCHAR question
ENCODING 63
SWIDTH 617 0
DWIDTH 9 0
BBX 7 9 1 0
ATTRIBUTES 2328
BITMAP
fe
06
02
02
fe
80
00
00
80
ENDCHAR
STARTCHAR at
ENCODING 64
SWIDTH 685 0
DWIDTH 10 0
BBX 8 7 1 1
ATTRIBUTES 2710
BITMAP
ff
81
bf
a3
bf
81
ff
ENDCHAR
STARTCHAR A
ENCODING 65
SWIDTH 617 0
DWIDTH 9 0
BBX 7 9 1 0
ATTRIBUTES 2328
BITMAP
fe
06
02
02
fe
82
82
82
82
ENDCHAR
STARTCHAR B
ENCODING 66
SWIDTH 617 0
DWIDTH 9 0
BBX 7 9 1 0
ATTRIBUTES 2328
BITMAP
fe
06
02
02
fe
82
82
86
fe
ENDCHAR
STARTCHAR C
ENCODING 67
SWIDTH 617 0
DWIDTH 9 0
BBX 7 9 1 0
ATTRIBUTES 2328
BITMAP
fe
80
80
80
80
80
80
80
fe
ENDCHAR
STARTCHAR D
ENCODING 68
SWIDTH 617 0
DWIDTH 9 0
BBX 7 9 1 0
ATTRIBUTES 2328
BITMAP
fe
86
82
82
82
82
82
86
be
ENDCHAR
STARTCHAR E
ENCODING 69
SWIDTH 617 0
DWIDTH 9 0
BBX 7 9 1 0
ATTRIBUTES 2328
BITMAP
fe
c0
80
80
fe
80
80
80
fe
ENDCHAR
STARTCHAR F
ENCODING 70
SWIDTH 617 0
DWIDTH 9 0
BBX 7 9 1 0
ATTRIBUTES 2328
BITMAP
fe
c0
80
80
fe
80
80
80
80
ENDCHAR
STARTCHAR G
ENCODING 71
SWIDTH 617 0
DWIDTH 9 0
BBX 7 9 1 0
ATTRIBUTES 2328
BITMAP
fe
80
80
80
80
82
82
c6
fe
ENDCHAR
STARTCHAR H
ENCODING 72
SWIDTH 617 0
DWIDTH 9 0
BBX 7 9 1 0
ATTRIBUTES 2328
BITMAP
82
82
82
82
fe
82
82
82
82
ENDCHAR
STARTCHAR I
ENCODING 73
SWIDTH 205 0
DWIDTH 3 0
BBX 1 9 1 0
ATTRIBUTES 0bb8
BITMAP
80
80
80
80
80
80
80
80
80
ENDCHAR
STARTCHAR J
ENCODING 74
SWIDTH 685 0
DWIDTH 10 0
BBX 7 9 2 0
ATTRIBUTES 2710
BITMAP
02
02
02
02
02
02
02
06
fe
ENDCHAR
STARTCHAR K
ENCODING 75
SWIDTH 617 0
DWIDTH 9 0
BBX 7 9 1 0
ATTRIBUTES 2328
BITMAP
8e
88
88
88
fe
86
82
82
82
ENDCHAR
STARTCHAR L
ENCODING 76
SWIDTH 617 0
DWIDTH 9 0
BBX 7 9 1 0
ATTRIBUTES 2328
BITMAP
80
80
80
80
80
80
80
c0
fe
ENDCHAR
STARTCHAR M
ENCODING 77
SWIDTH 685 0
DWIDTH 10 0
BBX 8 9 1 0
ATTRIBUTES 2710
BITMAP
ff
83
89
89
89
89
89
89
89
ENDCHAR
STARTCHAR N
ENCODING 78
SWIDTH 617 0
DWIDTH 9 0
BBX 7 9 1 0
ATTRIBUTES 2328
BITMAP
fe
86
82
82
82
82
82
82
82
ENDCHAR
STARTCHAR O
ENCODING 79
SWIDTH 617 0
DWIDTH 9 0
BBX 7 9 1 0
ATTRIBUTES 2328
BITMAP
fe
86
82
82
82
82
82
86
fe
ENDCHAR
STARTCHAR P
ENCODING 80
SWIDTH 617 0
DWIDTH 9 0
BBX 7 9 1 0
ATTRIBUTES 2328
BITMAP
fe
06
02
02
fe
80
80
80
80
ENDCHAR
STARTCHAR Q
ENCODING 81
SWIDTH 617 0
DWIDTH 9 0
BBX 7 9 1 0
ATTRIBUTES 2328
BITMAP
fe
c6
82
82
82
92
92
96
9e
ENDCHAR
STARTCHAR R
ENCODING 82
SWIDTH 617 0
DWIDTH 9 0
BBX 7 9 1 0
ATTRIBUTES 2328
BITMAP
fe
06
02
02
fe
88
88
88
8e
ENDCHAR
STARTCHAR S
ENCODING 83
SWIDTH 617 0
DWIDTH 9 0
BBX 7 9 1 0
ATTRIBUTES 2328
BITMAP
fe
80
80
80
fe
06
02
06
fe
ENDCHAR
STARTCHAR T
ENCODING 84
SWIDTH 685 0
DWIDTH 10 0
BBX 8 9 1 0
ATTRIBUTES 2710
BITMAP
ff
00
10
10
10
10
10
10
10
ENDCHAR
STARTCHAR U
ENCODING 85
SWIDTH 617 0
DWIDTH 9 0
BBX 7 9 1 0
ATTRIBUTES 2328
BITMAP
82
82
82
82
82
82
82
c6
fe
ENDCHAR
STARTCHAR V
ENCODING 86
SWIDTH 617 0
DWIDTH 9 0
BBX 7 9 1 0
ATTRIBUTES 2328
BITMAP
82
82
86
c6
44
6c
28
38
10
ENDCHAR
STARTCHAR W
ENCODING 87
SWIDTH 685 0
DWIDTH 10 0
BBX 8 9 1 0
ATTRIBUTES 2710
BITMAP
89
89
89
89
89
89
89
83
ff
ENDCHAR
STARTCHAR X
ENCODING 88
SWIDTH 685 0
DWIDTH 10 0
BBX 9 9 1 0
ATTRIBUTES 2710
BITMAP
f780
3400
1400
1400
1400
1400
1400
3400
f780
ENDCHAR
STARTCHAR Y
ENCODING 89
SWIDTH 617 0
DWIDTH 9 0
BBX 7 9 1 0
ATTRIBUTES 2328
BITMAP
82
82
82
82
fe
02
02
02
fe
ENDCHAR
STARTCHAR Z
ENCODING 90
SWIDTH 685 0
DWIDTH 10 0
BBX 8 9 1 0
ATTRIBUTES 2710
BITMAP
ff
03
06
0c
18
30
60
c0
ff
ENDCHAR
STARTCHAR bracketleft
ENCODING 91
SWIDTH 342 0
DWIDTH 5 0
BBX 4 9 1 0
ATTRIBUTES 1388
BITMAP
f0
80
80
80
80
80
80
80
f0
ENDCHAR
STARTCHAR backslash
ENCODING 92
SWIDTH 617 0
DWIDTH 9 0
BBX 8 9 1 0
ATTRIBUTES 2328
BITMAP
c0
60
20
10
18
08
04
06
02
ENDCHAR
STARTCHAR bracketright
ENCODING 93
SWIDTH 411 0
DWIDTH 6 0
BBX 4 9 1 0
ATTRIBUTES 1770
BITMAP
f0
30
10
10
10
10
10
30
f0
ENDCHAR
STARTCHAR asciicircum
ENCODING 94
SWIDTH 411 0
DWIDTH 6 0
BBX 0 0 0 0
ATTRIBUTES 1770
BITMAP
ENDCHAR
STARTCHAR underscore
ENCODING 95
SWIDTH 548 0
DWIDTH 8 0
BBX 8 1 0 -2
ATTRIBUTES 1f40
BITMAP
ff
ENDCHAR
STARTCHAR grave
ENCODING 96
SWIDTH 274 0
DWIDTH 4 0
BBX 2 3 1 6
ATTRIBUTES 0fa0
BITMAP
80
40
00
ENDCHAR
STARTCHAR a
ENCODING 97
SWIDTH 617 0
DWIDTH 9 0
BBX 7 5 1 0
ATTRIBUTES 2328
BITMAP
fe
82
82
82
f2
ENDCHAR
STARTCHAR b
ENCODING 98
SWIDTH 617 0
DWIDTH 9 0
BBX 7 9 1 0
ATTRIBUTES 2328
BITMAP
80
80
80
80
fe
06
02
06
fe
ENDCHAR
STARTCHAR c
ENCODING 99
SWIDTH 617 0
DWIDTH 9 0
BBX 7 5 1 0
ATTRIBUTES 2328
BITMAP
fe
80
80
80
fe
ENDCHAR
STARTCHAR d
ENCODING 100
SWIDTH 617 0
DWIDTH 9 0
BBX 7 9 1 0
ATTRIBUTES 2328
BITMAP
02
02
02
02
fe
80
80
80
fe
ENDCHAR
STARTCHAR e
ENCODING 101
SWIDTH 617 0
DWIDTH 9 0
BBX 7 5 1 0
ATTRIBUTES 2328
BITMAP
fe
86
98
80
fe
ENDCHAR
STARTCHAR f
ENCODING 102
SWIDTH 548 0
DWIDTH 8 0
BBX 7 9 1 -4
ATTRIBUTES 1f40
BITMAP
fe
00
00
00
fe
80
80
80
80
ENDCHAR
STARTCHAR g
ENCODING 103
SWIDTH 617 0
DWIDTH 9 0
BBX 7 9 1 -4
ATTRIBUTES 2328
BITMAP
fe
80
80
80
fe
02
02
02
02
ENDCHAR
STARTCHAR h
ENCODING 104
SWIDTH 617 0
DWIDTH 9 0
BBX 7 9 1 0
ATTRIBUTES 2328
BITMAP
80
80
80
80
fe
86
82
82
82
ENDCHAR
STARTCHAR i
ENCODING 105
SWIDTH 205 0
DWIDTH 3 0
BBX 1 9 1 0
ATTRIBUTES 0bb8
BITMAP
80
00
00
00
80
80
80
80
80
ENDCHAR
STARTCHAR j
ENCODING 106
SWIDTH 205 0
DWIDTH 3 0
BBX 4 13 -2 -4
ATTRIBUTES 0bb8
BITMAP
10
00
00
00
10
10
10
10
10
10
10
10
f0
ENDCHAR
STARTCHAR k
ENCODING 107
SWIDTH 617 0
DWIDTH 9 0
BBX 7 9 1 0
ATTRIBUTES 2328
BITMAP
80
80
88
88
fe
86
82
82
82
ENDCHAR
STARTCHAR l
ENCODING 108
SWIDTH 205 0
DWIDTH 3 0
BBX 1 9 1 0
ATTRIBUTES 0bb8
BITMAP
80
80
80
80
80
80
80
80
80
ENDCHAR
STARTCHAR m
ENCODING 109
SWIDTH 685 0
DWIDTH 10 0
BBX 8 5 1 0
ATTRIBUTES 2710
BITMAP
ff
83
89
89
89
ENDCHAR
STARTCHAR n
ENCODING 110
SWIDTH 617 0
DWIDTH 9 0
BBX 7 5 1 0
ATTRIBUTES 2328
BITMAP
fe
86
82
82
82
ENDCHAR
STARTCHAR o
ENCODING 111
SWIDTH 617 0
DWIDTH 9 0
BBX 7 5 1 0
ATTRIBUTES 2328
BITMAP
fe
86
82
86
fe
ENDCHAR
STARTCHAR p
ENCODING 112
SWIDTH 617 0
DWIDTH 9 0
BBX 7 9 1 -4
ATTRIBUTES 2328
BITMAP
fe
06
02
06
fe
80
80
80
80
ENDCHAR
STARTCHAR q
ENCODING 113
SWIDTH 617 0
DWIDTH 9 0
BBX 9 9 1 -4
ATTRIBUTES 2328
BITMAP
fe00
8000
8000
8000
fe00
0200
0200
0200
0380
ENDCHAR
STARTCHAR r
ENCODING 114
SWIDTH 617 0
DWIDTH 9 0
BBX 7 5 1 0
ATTRIBUTES 2328
BITMAP
fe
80
80
80
80
ENDCHAR
STARTCHAR s
ENCODING 115
SWIDTH 685 0
DWIDTH 10 0
BBX 8 5 1 0
ATTRIBUTES 2710
BITMAP
ff
e0
18
07
ff
ENDCHAR
STARTCHAR t
ENCODING 116
SWIDTH 617 0
DWIDTH 9 0
BBX 7 9 1 0
ATTRIBUTES 2328
BITMAP
80
80
80
80
fe
80
80
c0
fe
ENDCHAR
STARTCHAR u
ENCODING 117
SWIDTH 617 0
DWIDTH 9 0
BBX 7 5 1 0
ATTRIBUTES 2328
BITMAP
82
82
82
86
fe
ENDCHAR
STARTCHAR v
ENCODING 118
SWIDTH 617 0
DWIDTH 9 0
BBX 7 5 1 0
ATTRIBUTES 2328
BITMAP
82
82
c6
6c
30
ENDCHAR
STARTCHAR w
ENCODING 119
SWIDTH 685 0
DWIDTH 10 0
BBX 8 5 1 0
ATTRIBUTES 2710
BITMAP
89
89
89
83
ff
ENDCHAR
STARTCHAR x
ENCODING 120
SWIDTH 617 0
DWIDTH 9 0
BBX 7 5 1 0
ATTRIBUTES 2328
BITMAP
82
c6
38
ce
82
ENDCHAR
STARTCHAR y
ENCODING 121
SWIDTH 617 0
DWIDTH 9 0
BBX 7 9 1 -4
ATTRIBUTES 2328
BITMAP
82
82
82
82
fe
02
02
02
02
ENDCHAR
STARTCHAR z
ENCODING 122
SWIDTH 685 0
DWIDTH 10 0
BBX 8 5 1 0
ATTRIBUTES 2710
BITMAP
ff
07
18
e0
ff
ENDCHAR
STARTCHAR braceleft
ENCODING 123
SWIDTH 342 0
DWIDTH 5 0
BBX 4 9 1 0
ATTRIBUTES 1388
BITMAP
f0
80
80
80
80
80
80
80
f0
ENDCHAR
STARTCHAR bar
ENCODING 124
SWIDTH 205 0
DWIDTH 3 0
BBX 1 9 1 0
ATTRIBUTES 0bb8
BITMAP
80
80
80
80
80
80
80
80
80
ENDCHAR
STARTCHAR braceright
ENCODING 125
SWIDTH 411 0
DWIDTH 6 0
BBX 4 9 1 0
ATTRIBUTES 1770
BITMAP
f0
30
10
10
10
10
10
30
f0
ENDCHAR
STARTCHAR asciitilde
ENCODING 126
SWIDTH 548 0
DWIDTH 8 0
BBX 5 3 2 2
ATTRIBUTES 1f40
BITMAP
08
f8
80
ENDCHAR
STARTCHAR nobreakspace
ENCODING 160
SWIDTH 754 0
DWIDTH 11 0
BBX 0 0 0 0
ATTRIBUTES 2af8
BITMAP
ENDCHAR
STARTCHAR exclamdown
ENCODING 161
SWIDTH 205 0
DWIDTH 3 0
BBX 1 9 1 0
ATTRIBUTES 0bb8
BITMAP
80
00
00
00
80
80
80
80
80
ENDCHAR
STARTCHAR cent
ENCODING 162
SWIDTH 617 0
DWIDTH 9 0
BBX 7 9 1 0
ATTRIBUTES 2328
BITMAP
10
10
fe
90
90
90
fe
10
10
ENDCHAR
STARTCHAR sterling
ENCODING 163
SWIDTH 617 0
DWIDTH 9 0
BBX 7 12 1 -2
ATTRIBUTES 2328
BITMAP
fe
82
82
82
82
82
82
82
82
82
82
fe
ENDCHAR
STARTCHAR currency
ENCODING 164
SWIDTH 685 0
DWIDTH 10 0
BBX 7 8 2 1
ATTRIBUTES 2710
BITMAP
82
fc
6c
44
44
6c
7c
86
ENDCHAR
STARTCHAR yen
ENCODING 165
SWIDTH 754 0
DWIDTH 11 0
BBX 9 9 1 0
ATTRIBUTES 2af8
BITMAP
8200
8200
8f80
8200
fe00
0200
0f80
0600
fe00
ENDCHAR
STARTCHAR brokenbar
ENCODING 166
SWIDTH 480 0
DWIDTH 7 0
BBX 1 12 3 -2
ATTRIBUTES 1b58
BITMAP
80
80
80
80
80
00
00
80
80
80
80
80
ENDCHAR
STARTCHAR section
ENCODING 167
SWIDTH 617 0
DWIDTH 9 0
BBX 7 9 1 0
ATTRIBUTES 2328
BITMAP
fe
80
fe
82
82
82
fe
06
fe
ENDCHAR
STARTCHAR diaeresis
ENCODING 168
SWIDTH 342 0
DWIDTH 5 0
BBX 3 1 1 10
ATTRIBUTES 1388
BITMAP
a0
ENDCHAR
STARTCHAR copyright
ENCODING 169
SWIDTH 685 0
DWIDTH 10 0
BBX 8 7 1 1
ATTRIBUTES 2710
BITMAP
ff
81
bd
a1
bd
81
ff
ENDCHAR
STARTCHAR ordfeminine
ENCODING 170
SWIDTH 411 0
DWIDTH 6 0
BBX 4 5 1 4
ATTRIBUTES 1770
BITMAP
f0
10
f0
90
90
ENDCHAR
STARTCHAR guillemotleft
ENCODING 171
SWIDTH 548 0
DWIDTH 8 0
BBX 6 4 1 1
ATTRIBUTES 1f40
BITMAP
24
d8
4c
00
ENDCHAR
STARTCHAR notsign
ENCODING 172
SWIDTH 480 0
DWIDTH 7 0
BBX 5 3 1 2
ATTRIBUTES 1b58
BITMAP
f8
08
08
ENDCHAR
STARTCHAR hyphen
ENCODING 173
SWIDTH 480 0
DWIDTH 7 0
BBX 5 1 1 4
ATTRIBUTES 1b58
BITMAP
f8
ENDCHAR
STARTCHAR registered
ENCODING 174
SWIDTH 685 0
DWIDTH 10 0
BBX 8 7 1 1
ATTRIBUTES 2710
BITMAP
ff
81
bd
a1
a1
81
ff
ENDCHAR
STARTCHAR macron
ENCODING 175
SWIDTH 548 0
DWIDTH 8 0
BBX 4 1 2 7
ATTRIBUTES 1f40
BITMAP
f0
ENDCHAR
STARTCHAR degree
ENCODING 176
SWIDTH 411 0
DWIDTH 6 0
BBX 4 5 1 4
ATTRIBUTES 1770
BITMAP
f0
90
90
90
f0
ENDCHAR
STARTCHAR plusminus
ENCODING 177
SWIDTH 480 0
DWIDTH 7 0
BBX 5 7 1 0
ATTRIBUTES 1b58
BITMAP
20
20
f8
20
20
00
f8
ENDCHAR
STARTCHAR twosuperior
ENCODING 178
SWIDTH 342 0
DWIDTH 5 0
BBX 4 5 1 4
ATTRIBUTES 1388
BITMAP
f0
10
f0
80
f0
ENDCHAR
STARTCHAR threesuperior
ENCODING 179
SWIDTH 342 0
DWIDTH 5 0
BBX 5 5 0 4
ATTRIBUTES 1388
BITMAP
f8
08
f8
08
f8
ENDCHAR
STARTCHAR acute
ENCODING 180
SWIDTH 274 0
DWIDTH 4 0
BBX 2 3 1 6
ATTRIBUTES 0fa0
BITMAP
40
80
00
ENDCHAR
STARTCHAR mu
ENCODING 181
SWIDTH 685 0
DWIDTH 10 0
BBX 8 7 1 -2
ATTRIBUTES 2710
BITMAP
82
82
82
c6
ff
80
80
ENDCHAR
STARTCHAR paragraph
ENCODING 182
SWIDTH 685 0
DWIDTH 10 0
BBX 7 9 2 0
ATTRIBUTES 2710
BITMAP
fe
f6
f2
f2
f2
12
12
12
12
ENDCHAR
STARTCHAR periodcentered
ENCODING 183
SWIDTH 205 0
DWIDTH 3 0
BBX 1 1 1 3
ATTRIBUTES 0bb8
BITMAP
80
ENDCHAR
STARTCHAR cedilla
ENCODING 184
SWIDTH 205 0
DWIDTH 3 0
BBX 1 2 1 -2
ATTRIBUTES 0bb8
BITMAP
80
80
ENDCHAR
STARTCHAR onesuperior
ENCODING 185
SWIDTH 205 0
DWIDTH 3 0
BBX 1 5 1 4
ATTRIBUTES 0bb8
BITMAP
80
80
80
80
80
ENDCHAR
STARTCHAR masculine
ENCODING 186
SWIDTH 411 0
DWIDTH 6 0
BBX 4 5 1 4
ATTRIBUTES 1770
BITMAP
f0
90
90
90
f0
ENDCHAR
STARTCHAR guillemotright
ENCODING 187
SWIDTH 548 0
DWIDTH 8 0
BBX 6 4 1 1
ATTRIBUTES 1f40
BITMAP
90
6c
c8
00
ENDCHAR
STARTCHAR onequarter
ENCODING 188
SWIDTH 822 0
DWIDTH 12 0
BBX 10 9 1 0
ATTRIBUTES 2ee0
BITMAP
0100
4200
4400
4c00
4a40
5240
33c0
6040
4040
ENDCHAR
STARTCHAR onehalf
ENCODING 189
SWIDTH 822 0
DWIDTH 12 0
BBX 10 9 1 0
ATTRIBUTES 2ee0
BITMAP
0100
4200
4400
4c00
4bc0
5040
33c0
6200
43c0
ENDCHAR
STARTCHAR threequarters
ENCODING 190
SWIDTH 960 0
DWIDTH 14 0
BBX 12 9 1 0
ATTRIBUTES 36b0
BITMAP
f840
0880
f900
0a00
fa90
0490
08f0
1810
1010
ENDCHAR
STARTCHAR questiondown
ENCODING 191
SWIDTH 617 0
DWIDTH 9 0
BBX 7 9 1 0
ATTRIBUTES 2328
BITMAP
02
00
00
02
fe
80
80
80
fe
ENDCHAR
STARTCHAR Agrave
ENCODING 192
SWIDTH 617 0
DWIDTH 9 0
BBX 7 11 1 0
ATTRIBUTES 2328
BITMAP
10
00
fe
06
02
02
fe
82
82
82
82
ENDCHAR
STARTCHAR Aacute
ENCODING 193
SWIDTH 617 0
DWIDTH 9 0
BBX 7 11 1 0
ATTRIBUTES 2328
BITMAP
18
00
fe
06
02
02
fe
82
82
82
82
ENDCHAR
STARTCHAR Acircumflex
ENCODING 194
SWIDTH 617 0
DWIDTH 9 0
BBX 7 12 1 0
ATTRIBUTES 2328
BITMAP
10
28
20
fe
06
02
02
fe
82
82
82
82
ENDCHAR
STARTCHAR Atilde
ENCODING 195
SWIDTH 617 0
DWIDTH 9 0
BBX 7 13 1 0
ATTRIBUTES 2328
BITMAP
04
7c
40
00
fe
02
02
02
fe
82
82
82
82
ENDCHAR
STARTCHAR Adiaeresis
ENCODING 196
SWIDTH 617 0
DWIDTH 9 0
BBX 7 11 1 0
ATTRIBUTES 2328
BITMAP
28
00
fe
06
02
02
fe
82
82
82
82
ENDCHAR
STARTCHAR Aring
ENCODING 197
SWIDTH 617 0
DWIDTH 9 0
BBX 7 12 1 0
ATTRIBUTES 2328
BITMAP
38
28
38
fe
02
02
02
fe
82
82
82
82
ENDCHAR
STARTCHAR AE
ENCODING 198
SWIDTH 1097 0
DWIDTH 16 0
BBX 14 9 1 0
ATTRIBUTES 3e80
BITMAP
fffc
0600
0200
0200
fffc
8200
8200
8200
83fc
ENDCHAR
STARTCHAR Ccedilla
ENCODING 199
SWIDTH 617 0
DWIDTH 9 0
BBX 7 11 1 -2
ATTRIBUTES 2328
BITMAP
fe
c0
80
80
80
80
80
c0
fe
08
08
ENDCHAR
STARTCHAR Egrave
ENCODING 200
SWIDTH 617 0
DWIDTH 9 0
BBX 7 11 1 0
ATTRIBUTES 2328
BITMAP
10
08
fe
c0
80
80
fe
80
80
80
fe
ENDCHAR
STARTCHAR Eacute
ENCODING 201
SWIDTH 617 0
DWIDTH 9 0
BBX 7 11 1 0
ATTRIBUTES 2328
BITMAP
18
10
fe
80
80
80
fe
80
80
80
fe
ENDCHAR
STARTCHAR Ecircumflex
ENCODING 202
SWIDTH 617 0
DWIDTH 9 0
BBX 7 12 1 0
ATTRIBUTES 2328
BITMAP
10
28
00
fe
80
80
80
fe
80
80
80
fe
ENDCHAR
STARTCHAR Ediaeresis
ENCODING 203
SWIDTH 617 0
DWIDTH 9 0
BBX 7 11 1 0
ATTRIBUTES 2328
BITMAP
28
00
fe
c0
80
80
fe
80
80
80
fe
ENDCHAR
STARTCHAR Igrave
ENCODING 204
SWIDTH 205 0
DWIDTH 3 0
BBX 2 11 1 0
ATTRIBUTES 0bb8
BITMAP
80
40
80
80
80
80
80
80
80
80
80
ENDCHAR
STARTCHAR Iacute
ENCODING 205
SWIDTH 205 0
DWIDTH 3 0
BBX 3 11 0 0
ATTRIBUTES 0bb8
BITMAP
60
00
40
40
40
40
40
40
40
40
40
ENDCHAR
STARTCHAR Icircumflex
ENCODING 206
SWIDTH 205 0
DWIDTH 3 0
BBX 3 12 0 0
ATTRIBUTES 0bb8
BITMAP
40
a0
a0
40
40
40
40
40
40
40
40
40
ENDCHAR
STARTCHAR Idiaeresis
ENCODING 207
SWIDTH 205 0
DWIDTH 3 0
BBX 3 11 0 0
ATTRIBUTES 0bb8
BITMAP
a0
00
40
40
40
40
40
40
40
40
40
ENDCHAR
STARTCHAR ETH
ENCODING 208
SWIDTH 754 0
DWIDTH 11 0
BBX 9 9 1 0
ATTRIBUTES 2af8
BITMAP
3f80
2180
2080
2080
f880
2080
2080
2180
2f80
ENDCHAR
STARTCHAR Ntilde
ENCODING 209
SWIDTH 617 0
DWIDTH 9 0
BBX 7 13 1 0
ATTRIBUTES 2328
BITMAP
04
7c
40
00
fe
82
82
82
82
82
82
82
82
ENDCHAR
STARTCHAR Ograve
ENCODING 210
SWIDTH 617 0
DWIDTH 9 0
BBX 7 11 1 0
ATTRIBUTES 2328
BITMAP
10
00
fe
86
82
82
82
82
82
86
fe
ENDCHAR
STARTCHAR Oacute
ENCODING 211
SWIDTH 617 0
DWIDTH 9 0
BBX 7 11 1 0
ATTRIBUTES 2328
BITMAP
18
00
fe
86
82
82
82
82
82
86
fe
ENDCHAR
STARTCHAR Ocircumflex
ENCODING 212
SWIDTH 617 0
DWIDTH 9 0
BBX 7 12 1 0
ATTRIBUTES 2328
BITMAP
10
28
00
fe
86
82
82
82
82
82
86
fe
ENDCHAR
STARTCHAR Otilde
ENCODING 213
SWIDTH 617 0
DWIDTH 9 0
BBX 7 13 1 0
ATTRIBUTES 2328
BITMAP
04
7c
40
00
fe
82
82
82
82
82
82
82
fe
ENDCHAR
STARTCHAR Odiaeresis
ENCODING 214
SWIDTH 617 0
DWIDTH 9 0
BBX 7 11 1 0
ATTRIBUTES 2328
BITMAP
28
00
fe
86
82
82
82
82
82
86
fe
ENDCHAR
STARTCHAR multiply
ENCODING 215
SWIDTH 617 0
DWIDTH 9 0
BBX 7 5 1 0
ATTRIBUTES 2328
BITMAP
82
ce
38
c6
82
ENDCHAR
STARTCHAR Ooblique
ENCODING 216
SWIDTH 617 0
DWIDTH 9 0
BBX 7 9 1 0
ATTRIBUTES 2328
BITMAP
fe
86
8a
9a
92
a2
e2
c6
fe
ENDCHAR
STARTCHAR Ugrave
ENCODING 217
SWIDTH 617 0
DWIDTH 9 0
BBX 7 11 1 0
ATTRIBUTES 2328
BITMAP
10
00
82
82
82
82
82
82
82
c6
fe
ENDCHAR
STARTCHAR Uacute
ENCODING 218
SWIDTH 617 0
DWIDTH 9 0
BBX 7 11 1 0
ATTRIBUTES 2328
BITMAP
18
00
82
82
82
82
82
82
82
c6
fe
ENDCHAR
STARTCHAR Ucircumflex
ENCODING 219
SWIDTH 617 0
DWIDTH 9 0
BBX 7 12 1 0
ATTRIBUTES 2328
BITMAP
10
28
00
82
82
82
82
82
82
82
c6
fe
ENDCHAR
STARTCHAR Udiaeresis
ENCODING 220
SWIDTH 617 0
DWIDTH 9 0
BBX 7 11 1 0
ATTRIBUTES 2328
BITMAP
28
00
82
82
82
82
82
82
82
c6
fe
ENDCHAR
STARTCHAR Yacute
ENCODING 221
SWIDTH 617 0
DWIDTH 9 0
BBX 7 11 1 0
ATTRIBUTES 2328
BITMAP
18
10
82
82
82
82
fe
02
02
02
fe
ENDCHAR
STARTCHAR THORN
ENCODING 222
SWIDTH 617 0
DWIDTH 9 0
BBX 7 9 1 0
ATTRIBUTES 2328
BITMAP
80
80
fe
06
02
02
fe
80
80
ENDCHAR
STARTCHAR ssharp
ENCODING 223
SWIDTH 617 0
DWIDTH 9 0
BBX 7 10 1 -1
ATTRIBUTES 2328
BITMAP
fe
06
02
02
fe
82
82
86
9e
80
ENDCHAR
STARTCHAR agrave
ENCODING 224
SWIDTH 617 0
DWIDTH 9 0
BBX 7 9 1 0
ATTRIBUTES 2328
BITMAP
10
10
00
00
fe
82
82
82
f2
ENDCHAR
STARTCHAR aacute
ENCODING 225
SWIDTH 617 0
DWIDTH 9 0
BBX 7 9 1 0
ATTRIBUTES 2328
BITMAP
10
10
00
00
fe
82
82
82
f2
ENDCHAR
STARTCHAR acircumflex
ENCODING 226
SWIDTH 617 0
DWIDTH 9 0
BBX 7 9 1 0
ATTRIBUTES 2328
BITMAP
10
38
28
00
fe
82
82
82
f2
ENDCHAR
STARTCHAR atilde
ENCODING 227
SWIDTH 617 0
DWIDTH 9 0
BBX 7 9 1 0
ATTRIBUTES 2328
BITMAP
04
7c
40
00
fe
82
82
82
f2
ENDCHAR
STARTCHAR adiaeresis
ENCODING 228
SWIDTH 617 0
DWIDTH 9 0
BBX 7 8 1 0
ATTRIBUTES 2328
BITMAP
28
00
00
fe
82
82
82
f2
ENDCHAR
STARTCHAR aring
ENCODING 229
SWIDTH 617 0
DWIDTH 9 0
BBX 7 9 1 0
ATTRIBUTES 2328
BITMAP
38
28
38
00
fe
82
82
82
f2
ENDCHAR
STARTCHAR ae
ENCODING 230
SWIDTH 1028 0
DWIDTH 15 0
BBX 13 5 1 0
ATTRIBUTES 3a98
BITMAP
fff8
8218
8260
8200
f3f8
ENDCHAR
STARTCHAR ccedilla
ENCODING 231
SWIDTH 617 0
DWIDTH 9 0
BBX 7 7 1 -2
ATTRIBUTES 2328
BITMAP
fe
c0
80
c0
fe
08
08
ENDCHAR
STARTCHAR egrave
ENCODING 232
SWIDTH 617 0
DWIDTH 9 0
BBX 7 9 1 0
ATTRIBUTES 2328
BITMAP
10
10
08
00
fe
86
98
c0
fe
ENDCHAR
STARTCHAR eacute
ENCODING 233
SWIDTH 617 0
DWIDTH 9 0
BBX 7 9 1 0
ATTRIBUTES 2328
BITMAP
18
10
00
00
fe
86
9c
c0
fe
ENDCHAR
STARTCHAR ecircumflex
ENCODING 234
SWIDTH 617 0
DWIDTH 9 0
BBX 7 9 1 0
ATTRIBUTES 2328
BITMAP
10
38
28
00
fe
86
98
80
fe
ENDCHAR
STARTCHAR ediaeresis
ENCODING 235
SWIDTH 617 0
DWIDTH 9 0
BBX 7 8 1 0
ATTRIBUTES 2328
BITMAP
28
00
00
fe
86
98
80
fe
ENDCHAR
STARTCHAR igrave
ENCODING 236
SWIDTH 205 0
DWIDTH 3 0
BBX 2 9 1 0
ATTRIBUTES 0bb8
BITMAP
80
80
40
00
80
80
80
80
80
ENDCHAR
STARTCHAR iacute
ENCODING 237
SWIDTH 205 0
DWIDTH 3 0
BBX 3 9 0 0
ATTRIBUTES 0bb8
BITMAP
60
40
80
00
40
40
40
40
40
ENDCHAR
STARTCHAR icircumflex
ENCODING 238
SWIDTH 205 0
DWIDTH 3 0
BBX 3 9 0 0
ATTRIBUTES 0bb8
BITMAP
40
e0
a0
00
40
40
40
40
40
ENDCHAR
STARTCHAR idiaeresis
ENCODING 239
SWIDTH 205 0
DWIDTH 3 0
BBX 3 9 0 0
ATTRIBUTES 0bb8
BITMAP
a0
00
00
00
40
40
40
40
40
ENDCHAR
STARTCHAR eth
ENCODING 240
SWIDTH 617 0
DWIDTH 9 0
BBX 7 9 1 0
ATTRIBUTES 2328
BITMAP
fe
26
22
02
fe
82
82
86
fe
ENDCHAR
STARTCHAR ntilde
ENCODING 241
SWIDTH 617 0
DWIDTH 9 0
BBX 7 9 1 0
ATTRIBUTES 2328
BITMAP
04
7c
40
00
fe
82
82
82
82
ENDCHAR
STARTCHAR ograve
ENCODING 242
SWIDTH 617 0
DWIDTH 9 0
BBX 7 9 1 0
ATTRIBUTES 2328
BITMAP
10
10
00
00
fe
86
82
86
fe
ENDCHAR
STARTCHAR oacute
ENCODING 243
SWIDTH 617 0
DWIDTH 9 0
BBX 7 9 1 0
ATTRIBUTES 2328
BITMAP
18
10
00
00
fe
86
82
86
fe
ENDCHAR
STARTCHAR ocircumflex
ENCODING 244
SWIDTH 617 0
DWIDTH 9 0
BBX 7 9 1 0
ATTRIBUTES 2328
BITMAP
10
38
28
00
fe
86
82
86
fe
ENDCHAR
STARTCHAR otilde
ENCODING 245
SWIDTH 617 0
DWIDTH 9 0
BBX 7 9 1 0
ATTRIBUTES 2328
BITMAP
04
7c
40
00
fe
82
82
82
fe
ENDCHAR
STARTCHAR odiaeresis
ENCODING 246
SWIDTH 617 0
DWIDTH 9 0
BBX 7 8 1 0
ATTRIBUTES 2328
BITMAP
28
00
00
fe
86
82
86
fe
ENDCHAR
STARTCHAR division
ENCODING 247
SWIDTH 480 0
DWIDTH 7 0
BBX 5 5 1 2
ATTRIBUTES 1b58
BITMAP
20
00
f8
00
20
ENDCHAR
STARTCHAR oslash
ENCODING 248
SWIDTH 617 0
DWIDTH 9 0
BBX 7 5 1 0
ATTRIBUTES 2328
BITMAP
fe
9e
92
a6
fe
ENDCHAR
STARTCHAR ugrave
ENCODING 249
SWIDTH 617 0
DWIDTH 9 0
BBX 7 9 1 0
ATTRIBUTES 2328
BITMAP
10
10
00
00
82
82
82
c6
fe
ENDCHAR
STARTCHAR uacute
ENCODING 250
SWIDTH 617 0
DWIDTH 9 0
BBX 7 9 1 0
ATTRIBUTES 2328
BITMAP
18
10
00
00
82
82
82
c6
fe
ENDCHAR
STARTCHAR ucircumflex
ENCODING 251
SWIDTH 617 0
DWIDTH 9 0
BBX 7 9 1 0
ATTRIBUTES 2328
BITMAP
10
38
28
00
82
82
82
c6
fe
ENDCHAR
STARTCHAR udiaeresis
ENCODING 252
SWIDTH 617 0
DWIDTH 9 0
BBX 7 8 1 0
ATTRIBUTES 2328
BITMAP
28
00
00
82
82
82
c6
fe
ENDCHAR
STARTCHAR yacute
ENCODING 253
SWIDTH 617 0
DWIDTH 9 0
BBX 7 13 1 -4
ATTRIBUTES 2328
BITMAP
18
10
00
00
82
82
82
82
fe
02
02
02
02
ENDCHAR
STARTCHAR thorn
ENCODING 254
SWIDTH 617 0
DWIDTH 9 0
BBX 7 9 1 0
ATTRIBUTES 2328
BITMAP
80
80
fe
06
02
02
fe
80
80
ENDCHAR
STARTCHAR ydiaeresis
ENCODING 255
SWIDTH 617 0
DWIDTH 9 0
BBX 7 12 1 -4
ATTRIBUTES 2328
BITMAP
28
00
00
82
82
82
82
fe
02
02
02
02
ENDCHAR
ENDFONT
